<?xml version="1.0" encoding="UTF-8"?>
<svg version="1.1" xmlns="http://www.w3.org/2000/svg" width="512" height="512">
<path d="M 0 0 C 169 0 337.9 0 512 0 C 512 169 512 337.9 512 512 C 343 512 174.1 512 0 512 C 0 343 0 174.1 0 0 Z" fill="#fcfcfc" transform="translate(0)"/>
<path d="M 0 0 C 0.3 0.3 0.7 0.7 1 1 C 2.4 1.1 3.7 1.2 5.1 1.2 C 6 1.2 6.8 1.3 7.7 1.3 C 8.6 1.3 9.5 1.3 10.5 1.4 C 26.1 2 39.8 4.4 54 11 C 55 11.4 55.9 11.9 56.9 12.3 C 65.2 16.4 71.5 22.6 78 29 C 78.6 29.5 79.1 30.1 79.7 30.6 C 81.2 32.1 82.6 33.5 84 35 C 84 35.7 84 36.3 84 37 C 82.7 37 81.4 37 80.1 37 C 60.7 37.5 41.3 40.4 23 47 C 22.1 47.3 21.2 47.6 20.2 47.9 C 9.1 51.6 -0.1 55.9 -5.7 66.7 C -12.2 82.9 -10.9 98 -5 114 C -2.8 118.9 0.3 120.6 5 122.8 C 26.4 133.6 44.8 151.7 54 174 C 54.8 175.8 54.8 175.8 55.7 177.6 C 63.4 194 68.8 211.4 74 228.8 C 75.8 234.5 78 240 80.4 245.6 C 81.2 247.4 82 249.2 82.8 251.1 C 83.4 252.3 83.4 252.3 84 253.7 C 85.2 256.5 86.4 259.4 87.5 262.3 C 92.4 273.9 98.7 284.9 105.5 295.5 C 107.5 298.6 109.3 301.6 110.9 304.9 C 113.1 309.4 115.9 313.5 118.7 317.6 C 122.5 323.2 126.2 328.9 129.6 334.8 C 132.9 340.4 136.6 345.7 140.4 350.9 C 143.7 355.4 146.4 360.1 149.2 364.9 C 151.3 368.4 153.6 371.7 156 375 C 159.8 380.2 163.2 385.6 166.4 391.2 C 168.7 395.3 171.3 399.1 174 403 C 160.6 401.3 148.4 397.3 136 392 C 134.8 391.5 133.6 391 132.4 390.5 C 129.5 389.2 126.8 387.9 124.1 386.3 C 123.3 385.9 122.5 385.4 121.7 385 C 121.2 384.7 120.6 384.3 120 384 C 119.7 388.2 120 391.3 121.4 395.3 C 123 399.5 123.5 403.5 123.7 408 C 124 411.1 124.7 414.1 125.4 417.2 C 126.6 422.8 127.6 428.5 128.7 434.2 C 129.1 436.4 129.5 438.6 130 440.8 C 130.2 442.2 130.5 443.6 130.8 445 C 131.1 446.9 131.1 446.9 131.5 448.9 C 132 452 132 452 132 455 C 93.2 450 59.5 422.3 36 392.5 C 34 390.1 32 387.8 29.9 385.5 C 26.1 381.3 22.9 376.8 19.7 372.2 C 18.2 369.9 18.2 369.9 16 369 C 15.6 370.2 15.2 371.4 14.8 372.7 C 11.2 383.3 7 393.5 2.3 403.7 C -0.3 409.4 -2.7 415.1 -5 421 C -3.8 421 -2.5 421 -1.2 421 C 3.4 420.9 8 420.9 12.6 420.8 C 14.6 420.8 16.6 420.8 18.6 420.8 C 21.5 420.7 24.4 420.7 27.2 420.7 C 28.6 420.7 28.6 420.7 29.9 420.7 C 36.1 420.7 40.2 421.7 45.1 425.7 C 48.4 429.3 50.5 431.8 50.5 436.8 C 50.2 440.6 49.8 443.3 46.9 446 C 38.2 452 29.3 451.4 19.1 451.4 C 17.4 451.4 15.7 451.4 14 451.4 C 9.3 451.4 4.7 451.4 0 451.4 C -4.8 451.4 -9.7 451.4 -14.5 451.4 C -22.7 451.4 -30.9 451.4 -39 451.3 C -48.5 451.3 -57.9 451.3 -67.4 451.3 C -76.4 451.3 -85.5 451.3 -94.6 451.3 C -98.5 451.3 -102.3 451.3 -106.2 451.3 C -110.7 451.3 -115.3 451.3 -119.8 451.3 C -121.5 451.3 -123.2 451.3 -124.9 451.3 C -127.1 451.3 -129.4 451.3 -131.7 451.3 C -133.6 451.3 -133.6 451.3 -135.6 451.3 C -139.7 450.9 -143.4 450.3 -146.6 447.6 C -150.1 443 -151.4 439.9 -151.3 434.1 C -150.7 429.4 -147.7 426.6 -144.4 423.7 C -140 420.5 -136.1 420.8 -130.8 420.7 C -129.9 420.7 -129 420.6 -128.1 420.6 C -125.2 420.6 -122.3 420.5 -119.4 420.4 C -117.4 420.4 -115.4 420.4 -113.5 420.3 C -108.7 420.2 -103.8 420.1 -99 420 C -96.1 413.6 -93.2 407.2 -90.5 400.7 C -90.2 400 -89.9 399.3 -89.6 398.5 C -87.2 392.7 -85.1 386.7 -83 380.8 C -82 378 -82 378 -80 375 C -80.1 372.8 -80.1 372.8 -80.8 370.4 C -80.9 369.5 -81.1 368.6 -81.4 367.7 C -81.6 366.8 -81.8 365.9 -82 365 C -82.4 363.3 -82.7 361.6 -83.1 359.9 C -83.5 357.2 -83.5 357.2 -85 355 C -85.3 353.5 -85.5 352 -85.7 350.6 C -88.5 333.5 -88.5 333.5 -99.1 320.6 C -100.8 319.5 -102.6 318.3 -104.3 317.2 C -114.2 310.2 -121.8 299.6 -129 290 C -129.5 289.4 -129.9 288.7 -130.4 288.1 C -131.8 286.2 -133.2 284.3 -134.6 282.4 C -135.3 281.6 -135.3 281.6 -135.9 280.7 C -138.2 277.5 -139.6 274.9 -140 271 C -140.7 271 -141.3 271 -142 271 C -142.4 270.1 -142.8 269.1 -143.2 268.2 C -144.5 265.1 -145.8 262.1 -147.2 259 C -147.9 257.2 -148.7 255.4 -149.5 253.6 C -149.9 252.7 -150.3 251.8 -150.7 250.8 C -164.3 219.1 -166.4 179.3 -154 146.8 C -150.4 138.1 -146.2 127.9 -139.3 121.5 C -136.4 118.3 -136.5 116.9 -136.6 112.6 C -136.4 104 -134.8 95.7 -133.2 87.3 C -133.1 86.6 -132.9 85.9 -132.8 85.2 C -131.3 77.5 -129.6 70.1 -126.9 62.7 C -125.9 59.8 -125.1 57 -124.2 54.1 C -116.5 31.4 -99.4 8.1 -77.8 -3.2 C -75.5 -4.2 -73.3 -5.1 -71 -6 C -69.7 -6.5 -69.7 -6.5 -68.3 -7.1 C -43.7 -16.3 -22.5 -12.3 0 0 Z" fill="#091417" transform="translate(283,32)"/>
<path d="M 0 0 C 1.4 0.6 1.4 0.6 2.8 1.2 C 9.1 4 15.2 6.5 22 8 C 25.4 10.2 26.1 11.6 27.8 15.2 C 28.2 16.1 28.6 17 29.1 18 C 30.9 24.1 28.7 29.3 26.2 34.9 C 25.9 35.6 25.6 36.2 25.3 36.9 C 24.4 38.9 23.5 40.9 22.6 42.9 C 21.4 45.5 20.3 48.2 19.1 50.8 C 18.7 51.8 18.7 51.8 18.3 52.7 C 16.7 56.2 15.4 59.7 14.2 63.3 C 13 67 13 67 11 70 C 7.9 70.3 7.9 70.3 4 70.3 C 3 70.3 3 70.3 1.9 70.3 C -0.2 70.3 -2.4 70.2 -4.6 70.2 C -6.1 70.2 -7.6 70.2 -9.1 70.1 C -12.7 70.1 -16.4 70.1 -20 70 C -19.3 66.3 -18.4 63.4 -16.8 60.1 C -14.8 56 -13.2 51.9 -11.8 47.6 C -9.6 41.3 -7 35.2 -4.3 29.2 C -3.8 28.3 -3.4 27.4 -3 26.5 C -0.1 20.1 -0.1 20.1 1 19 C 1 17.6 1 16.2 0.9 14.7 C 0.8 13.9 0.8 13 0.7 12.2 C 0.7 11.3 0.6 10.4 0.6 9.4 C 0.5 8.1 0.5 8.1 0.4 6.7 C 0.3 4.5 0.1 2.2 0 0 Z" fill="#f5f7f7" transform="matrix(1,0,0,1,236,383)"/>
<path d="M 0 0 C 3 1.4 3 1.4 5 4 C 5.8 9 5.7 13.4 3.6 18.1 C 1.8 20.2 0.8 20.9 -2 21.3 C -6.5 21.5 -8.3 21.5 -12 18.6 C -14.8 15 -15.4 12.7 -15.4 8.1 C -14.7 4.4 -12.7 2.6 -10 0 C -6.7 -1.6 -3.4 -0.8 0 0 Z" fill="#f5f7f6" transform="translate(248,46)"/>
<path d="M 0 0 C 0 0.3 0 0.7 0 1 C -1.8 1.1 -1.8 1.1 -3.7 1.2 C -7 1.6 -8.1 2.1 -10.9 4.1 C -13.4 7.5 -13.8 9.9 -14 14 C -14.3 14 -14.7 14 -15 14 C -15.7 6.2 -15.7 6.2 -12.6 2.6 C -8.1 -1.8 -5.9 -0.9 0 0 Z" fill="#cdd1d2" transform="translate(248,46)"/>
<path d="M 0 0 C 0 0.7 0 1.3 0 2 C -0.7 2 -1.3 2 -2 2 C -2.2 2.6 -2.5 3.2 -2.8 3.9 C -4.2 6.4 -5.4 7 -8 8 C -6.7 3.9 -4.9 0 0 0 Z" fill="#c6ced0" transform="translate(288,87)"/>
</svg>
