<?xml version="1.0" encoding="UTF-8"?>
<svg version="1.1" xmlns="http://www.w3.org/2000/svg" width="512" height="512">
<path d="M0 0 C168.96 0 337.92 0 512 0 C512 168.96 512 337.92 512 512 C343.04 512 174.08 512 0 512 C0 343.04 0 174.08 0 0 Z " fill="#FCFCFC" transform="translate(0,0)"/>
<path d="M0 0 C0.33 0.33 0.66 0.66 1 1 C2.36101038 1.12117044 3.72771509 1.17963014 5.09375 1.2109375 C5.95081543 1.23696045 6.80788086 1.2629834 7.69091797 1.28979492 C8.61791504 1.3179126 9.54491211 1.34603027 10.5 1.375 C26.13699969 2.0189077 39.75843199 4.41571342 54 11 C54.96421875 11.42925781 55.9284375 11.85851562 56.921875 12.30078125 C65.22898427 16.37030443 71.48438896 22.57341701 78 29 C78.5676709 29.54140625 79.1353418 30.0828125 79.72021484 30.640625 C81.1850244 32.05521988 82.5972405 33.52385248 84 35 C84 35.66 84 36.32 84 37 C82.71351563 37.01417969 81.42703125 37.02835938 80.1015625 37.04296875 C60.71511653 37.47377866 41.31165145 40.44861737 23 47 C22.07960938 47.29390625 21.15921875 47.5878125 20.2109375 47.890625 C9.07927887 51.59072562 -0.1430902 55.89575205 -5.6640625 66.6953125 C-12.21665506 82.90435726 -10.91608021 98.00158592 -5 114 C-2.82030831 118.89219691 0.33499749 120.58711672 5 122.8125 C26.35736605 133.62346256 44.76479212 151.69564677 54 174 C54.83724609 175.76537109 54.83724609 175.76537109 55.69140625 177.56640625 C63.44355914 193.98040343 68.83891901 211.38902744 74.01953125 228.7578125 C75.7899949 234.54512032 77.97906129 240.03732737 80.4375 245.5625 C81.23892604 247.39164471 82.03971266 249.22106971 82.83984375 251.05078125 C83.40614502 252.33976318 83.40614502 252.33976318 83.98388672 253.65478516 C85.21533043 256.49698801 86.3599528 259.37008982 87.5 262.25 C92.351825 273.9076273 98.69365078 284.89082032 105.54956055 295.47167969 C107.53779185 298.55713372 109.34609782 301.61971723 110.9375 304.9296875 C113.12605657 309.42141603 115.86200189 313.45120598 118.6875 317.5625 C122.51069956 323.19901508 126.19116676 328.86809321 129.625 334.75 C132.92435076 340.38785635 136.55164251 345.67491101 140.41064453 350.94238281 C143.67170599 355.43190023 146.4303699 360.1029202 149.15625 364.9375 C151.26275359 368.43643817 153.59074272 371.70593894 156 375 C159.82450657 380.23175833 163.20247522 385.57400603 166.39453125 391.22265625 C168.73895766 395.27834281 171.342182 399.14470356 174 403 C160.59157288 401.25483101 148.36545938 397.32382005 136 392 C134.80375 391.49984375 133.6075 390.9996875 132.375 390.484375 C129.4971986 389.21867531 126.79147326 387.86591555 124.0625 386.3125 C123.29035156 385.87550781 122.51820313 385.43851562 121.72265625 384.98828125 C121.15417969 384.66214844 120.58570313 384.33601563 120 384 C119.73169104 388.20350701 119.96763705 391.28993234 121.4375 395.25 C122.9951878 399.53000198 123.46049753 403.49704245 123.69140625 408.03125 C124.01520577 411.14628332 124.66891491 414.11492072 125.3737793 417.16308594 C126.62027659 422.80998595 127.64988782 428.50246965 128.71435547 434.18603516 C129.1281035 436.39154339 129.54638137 438.59616323 129.96484375 440.80078125 C130.22944128 442.20828174 130.4937739 443.61583205 130.7578125 445.0234375 C131.11576904 446.92488525 131.11576904 446.92488525 131.48095703 448.86474609 C132 452 132 452 132 455 C93.16929229 450.03924879 59.49446915 422.33637657 35.9765625 392.4765625 C34.04751852 390.05953901 32.0248175 387.78073688 29.9375 385.5 C26.14790761 381.30790581 22.89382826 376.81983337 19.6640625 372.1875 C18.18408691 369.90825117 18.18408691 369.90825117 16 369 C15.608125 370.216875 15.21625 371.43375 14.8125 372.6875 C11.24635804 383.3037567 6.96690343 393.49860461 2.29833984 403.66918945 C-0.31465533 409.37989441 -2.71704344 415.14958466 -5 421 C-3.75911621 420.98428955 -2.51823242 420.9685791 -1.23974609 420.95239258 C3.37835155 420.89795912 7.996421 420.86360108 12.61474609 420.83520508 C14.61088841 420.82014902 16.60699781 420.79969973 18.60302734 420.77368164 C21.47762185 420.73715839 24.35177772 420.72024163 27.2265625 420.70703125 C28.55815903 420.68380547 28.55815903 420.68380547 29.91665649 420.66011047 C36.08230979 420.65844809 40.2221385 421.73465907 45.1171875 425.7265625 C48.44230018 429.3176842 50.45083435 431.7894093 50.5 436.8125 C50.23049595 440.61924476 49.76711193 443.25613389 46.9375 446 C38.16495071 451.97279952 29.29850545 451.42277798 19.12255859 451.37231445 C17.40699544 451.37474482 15.6914337 451.37846651 13.97587585 451.38337708 C9.33345662 451.39275476 4.69124936 451.3833877 0.04884672 451.37004495 C-4.81569213 451.35870094 -9.680221 451.36284014 -14.54476929 451.36479187 C-22.71054535 451.36567374 -30.87623822 451.35461534 -39.04199219 451.33618164 C-48.47830847 451.3150015 -57.91450306 451.31150781 -67.3508383 451.3177436 C-76.43737303 451.3234404 -85.52386497 451.31778877 -94.61039352 451.30657005 C-98.47388883 451.30192971 -102.33735792 451.30104775 -106.20085526 451.3031559 C-110.74977025 451.30504115 -115.29856156 451.29691661 -119.84744835 451.2810955 C-121.51553905 451.27685777 -123.18364231 451.27599867 -124.85173607 451.27878571 C-127.13083558 451.28201561 -129.40956743 451.27290564 -131.68862915 451.26069641 C-133.60051246 451.25761711 -133.60051246 451.25761711 -135.55101967 451.25447559 C-139.6783271 450.94995109 -143.43030774 450.33852618 -146.64453125 447.59765625 C-150.1141289 443.03728207 -151.36630817 439.85318165 -151.28125 434.05859375 C-150.65153255 429.44941188 -147.72879725 426.64203568 -144.375 423.6875 C-139.9548507 420.5468676 -136.11207877 420.78306046 -130.8359375 420.68359375 C-129.92872955 420.66281265 -129.02152161 420.64203156 -128.08682251 420.62062073 C-125.1829602 420.55512865 -122.27900595 420.49624186 -119.375 420.4375 C-117.40884458 420.39431445 -115.44269853 420.35070015 -113.4765625 420.30664062 C-108.65113638 420.19944761 -103.8256176 420.09817919 -99 420 C-96.06297932 413.60370673 -93.17224215 407.19926143 -90.5 400.6875 C-90.20520752 399.97255371 -89.91041504 399.25760742 -89.60668945 398.52099609 C-87.21718989 392.66558738 -85.07796088 386.74471769 -83.04296875 380.7578125 C-82 378 -82 378 -80 375 C-80.12248764 372.76816217 -80.12248764 372.76816217 -80.75 370.375 C-80.94980469 369.49714844 -81.14960938 368.61929687 -81.35546875 367.71484375 C-81.56816406 366.81894531 -81.78085938 365.92304688 -82 365 C-82.35458297 363.31258743 -82.70878035 361.62509376 -83.0625 359.9375 C-83.51492501 357.19290287 -83.51492501 357.19290287 -85 355 C-85.2555562 353.5251636 -85.47771359 352.04453949 -85.6875 350.5625 C-88.54937273 333.47326083 -88.54937273 333.47326083 -99.125 320.625 C-100.84174854 319.46929323 -102.56918589 318.33156163 -104.30078125 317.19824219 C-114.22616308 310.19913672 -121.83113106 299.63510448 -129 290 C-129.47308594 289.37174316 -129.94617188 288.74348633 -130.43359375 288.09619141 C-131.84286434 286.21859614 -133.23682925 284.33073396 -134.625 282.4375 C-135.26429443 281.58019287 -135.26429443 281.58019287 -135.91650391 280.70556641 C-138.21547297 277.51050145 -139.57499969 274.93491665 -140 271 C-140.66 271 -141.32 271 -142 271 C-142.4021875 270.06027344 -142.804375 269.12054688 -143.21875 268.15234375 C-144.52626765 265.10070191 -145.84030944 262.05192472 -147.15625 259.00390625 C-147.93753345 257.19011858 -148.71878279 255.3763162 -149.5 253.5625 C-149.89058594 252.65951172 -150.28117188 251.75652344 -150.68359375 250.82617188 C-164.30840367 219.14963568 -166.43717539 179.33006303 -153.97485352 146.84082031 C-150.41135716 138.13353453 -146.22635531 127.91974917 -139.25390625 121.453125 C-136.35665377 118.29978954 -136.49118423 116.85640208 -136.5625 112.625 C-136.4073862 104.01038077 -134.82597369 95.68153888 -133.1875 87.25 C-133.06239044 86.58768372 -132.93728088 85.92536743 -132.80838013 85.24298096 C-131.34294867 77.51594345 -129.56610824 70.08036712 -126.93994141 62.66259766 C-125.94284763 59.83810292 -125.06151157 56.98969024 -124.1875 54.125 C-116.49269419 31.42384875 -99.38109983 8.11482968 -77.76953125 -3.1640625 C-75.53845689 -4.19864919 -73.29593843 -5.11900037 -71 -6 C-69.65035156 -6.52400391 -69.65035156 -6.52400391 -68.2734375 -7.05859375 C-43.70099008 -16.29864629 -22.54867894 -12.25593619 0 0 Z " fill="#091417" transform="translate(283,32)"/>
<path d="M0 0 C1.37671875 0.61488281 1.37671875 0.61488281 2.78125 1.2421875 C9.11501409 4.03494681 15.22996472 6.46716182 22 8 C25.35896086 10.23930724 26.06632133 11.59730284 27.75 15.1875 C28.19859375 16.10917969 28.6471875 17.03085937 29.109375 17.98046875 C30.90311553 24.06187855 28.66250915 29.34551608 26.1640625 34.9296875 C25.88404388 35.56431915 25.60402527 36.19895081 25.31552124 36.85281372 C24.42684578 38.86395508 23.52677844 40.86970405 22.625 42.875 C21.4451582 45.51587283 20.2709201 48.15915613 19.1015625 50.8046875 C18.68188202 51.75151398 18.68188202 51.75151398 18.25372314 52.71746826 C16.73380448 56.18665146 15.37083752 59.65263898 14.2109375 63.2578125 C13 67 13 67 11 70 C7.92724609 70.34057617 7.92724609 70.34057617 4.0234375 70.29296875 C2.99556625 70.28660149 2.99556625 70.28660149 1.94692993 70.28010559 C-0.24411129 70.26329753 -2.43423632 70.22564405 -4.625 70.1875 C-6.10936173 70.17245579 -7.59373785 70.15876693 -9.078125 70.14648438 C-12.71904833 70.1133879 -16.35943478 70.06159207 -20 70 C-19.3218046 66.34919984 -18.37799495 63.4060719 -16.75 60.0625 C-14.82661657 55.95345358 -13.20879009 51.85782638 -11.75 47.5625 C-9.56853508 41.28379649 -6.98227052 35.24575546 -4.25 29.1875 C-3.8487793 28.29683838 -3.44755859 27.40617676 -3.03417969 26.48852539 C-0.13917964 20.13917964 -0.13917964 20.13917964 1 19 C1.0165911 17.58155387 0.9633054 16.16212393 0.87890625 14.74609375 C0.83056641 13.89208984 0.78222656 13.03808594 0.73242188 12.15820312 C0.67634766 11.26037109 0.62027344 10.36253906 0.5625 9.4375 C0.48418945 8.08495117 0.48418945 8.08495117 0.40429688 6.70507812 C0.27419751 4.4697345 0.13922064 2.2347911 0 0 Z " fill="#F5F7F7" transform="translate(236,383)"/>
<path d="M0 0 C3 1.375 3 1.375 5 4 C5.80562218 9.02739228 5.68307556 13.44755555 3.625 18.125 C1.78705055 20.24571091 0.7791653 20.89284564 -1.98828125 21.2734375 C-6.48027315 21.46972622 -8.34969305 21.51482633 -12 18.625 C-14.76414986 14.99705331 -15.39306028 12.72877309 -15.359375 8.10546875 C-14.72418186 4.38406547 -12.66020984 2.59687151 -10 0 C-6.7142215 -1.64288925 -3.44517807 -0.81024264 0 0 Z " fill="#F5F7F6" transform="translate(248,46)"/>
<path d="M0 0 C0 0.33 0 0.66 0 1 C-1.8253125 1.0928125 -1.8253125 1.0928125 -3.6875 1.1875 C-7.02260396 1.61917126 -8.08216898 2.05944139 -10.9375 4.125 C-13.35506808 7.49494339 -13.75889617 9.90123495 -14 14 C-14.33 14 -14.66 14 -15 14 C-15.66964286 6.23214286 -15.66964286 6.23214286 -12.625 2.5625 C-8.12187735 -1.83340545 -5.94707703 -0.86328538 0 0 Z " fill="#CDD1D2" transform="translate(248,46)"/>
<path d="M0 0 C0 0.66 0 1.32 0 2 C-0.66 2 -1.32 2 -2 2 C-2.2475 2.61875 -2.495 3.2375 -2.75 3.875 C-4.20628639 6.35068687 -5.37812506 6.95125002 -8 8 C-6.65580512 3.85539913 -4.87800266 0 0 0 Z " fill="#C6CED0" transform="translate(288,87)"/>
</svg>
